<?xml version="1.0" encoding="UTF-8"?> <svg xmlns="http://www.w3.org/2000/svg" width="1356" height="1000" viewBox="0 0 1356 1000" fill="none"><g clip-path="url(#clip0)"><rect width="1356" height="1000" fill="white"></rect><path opacity="0.2" d="M1078.24 549.986C1047.99 603.93 1043.14 672.124 1030.71 743.95C1019.21 810.335 985.793 882.752 920.756 900.219C869.716 913.915 815.614 888.255 775.81 853.345C736.007 818.435 705.243 774.22 665.212 739.536C592.185 676.112 489.266 648.791 394.471 667.661C347.927 676.922 303.808 696.513 257.002 704.275C210.197 712.036 156.833 705.37 124.7 670.406C99.8842 643.387 92.3155 603.967 96.4326 567.523C100.55 531.08 115.031 496.702 129.616 463.077C157.874 397.963 187.946 332.116 235.776 279.712C283.606 227.308 352.658 189.541 423.297 196.245C471.221 200.773 515.361 224.881 562.976 231.903C668.227 247.417 765.384 178.96 867.958 150.796C961.655 125.426 1061.3 133.714 1149.56 174.219C1189.3 192.581 1226.66 217.982 1252.58 253.269C1289.54 303.563 1303.61 390.602 1247.19 432.791C1226.66 448.139 1201.89 456.373 1178.12 465.948C1128.16 486.046 1097.87 515.012 1078.24 549.986Z" fill="url(#paint0_linear)"></path><circle cx="700" cy="467" r="250" stroke="white" stroke-width="4" stroke-dasharray="6 6"></circle><g style="mix-blend-mode:multiply" opacity="0.2"><circle cx="284" cy="446" r="237.319" fill="#6812D8"></circle><circle cx="284" cy="446" r="237.319" stroke="#06CFFF" stroke-width="26.6378"></circle></g><g style="mix-blend-mode:multiply" opacity="0.12"><circle cx="1219" cy="819" r="113.362" fill="#6812D8"></circle><circle cx="1219" cy="819" r="113.362" stroke="#06CFFF" stroke-width="12.7243"></circle></g><g style="mix-blend-mode:multiply" opacity="0.2"><circle cx="1178" cy="197" r="159.978" fill="#ACF43B"></circle><circle cx="1178" cy="197" r="159.978" stroke="#44D7B6" stroke-width="17.9567"></circle></g><circle cx="1178" cy="197" r="189" stroke="white" stroke-width="8" stroke-dasharray="7 7"></circle><line x1="275.137" y1="478.481" x2="100.137" y2="528.481" stroke="#C9CFDE"></line><line x1="274.916" y1="478.493" x2="198.916" y2="465.493" stroke="#C9CFDE"></line><line x1="275.076" y1="478.494" x2="41.0996" y2="514.645" stroke="#C9CFDE"></line><line x1="275.261" y1="478.427" x2="90.2606" y2="591.427" stroke="#C9CFDE"></line><line x1="275.315" y1="478.389" x2="149.315" y2="580.389" stroke="#C9CFDE"></line><line x1="275" y1="477.5" x2="401" y2="477.5" stroke="#C9CFDE"></line><line x1="286.552" y1="470.778" x2="329.552" y2="383.778" stroke="#C9CFDE"></line><line x1="224.639" y1="822.654" x2="311.639" y2="731.654" stroke="#C9CFDE"></line><line x1="259.533" y1="872.823" x2="311.533" y2="735.823" stroke="#C9CFDE"></line><line x1="353.532" y1="844.176" x2="311.532" y2="732.176" stroke="#C9CFDE"></line><line x1="441.738" y1="805.426" x2="311.738" y2="725.426" stroke="#C9CFDE"></line><line x1="469.082" y1="706.493" x2="312.082" y2="732.493" stroke="#C9CFDE"></line><line x1="577.855" y1="811.478" x2="317.855" y2="732.478" stroke="#C9CFDE"></line><line x1="442.499" y1="811.034" x2="436.499" y2="898.034" stroke="#C9CFDE"></line><line x1="354.477" y1="849.149" x2="326.477" y2="939.149" stroke="#C9CFDE"></line><line x1="435.768" y1="898.443" x2="353.768" y2="855.443" stroke="#C9CFDE"></line><line x1="485.756" y1="932.436" x2="435.756" y2="904.436" stroke="#C9CFDE"></line><line x1="525.446" y1="861.226" x2="486.446" y2="938.226" stroke="#C9CFDE"></line><line x1="578.343" y1="811.364" x2="525.343" y2="861.364" stroke="#C9CFDE"></line><line x1="684.352" y1="706.355" x2="578.352" y2="811.355" stroke="#C9CFDE"></line><line x1="435.694" y1="897.605" x2="683.694" y2="705.605" stroke="#C9CFDE"></line><line x1="250.946" y1="917.503" x2="435.946" y2="897.503" stroke="#C9CFDE"></line><line x1="133.059" y1="903.503" x2="251.059" y2="917.503" stroke="#C9CFDE"></line><line x1="153.445" y1="865.228" x2="133.445" y2="904.228" stroke="#C9CFDE"></line><line x1="221.263" y1="823.425" x2="153.263" y2="865.425" stroke="#C9CFDE"></line><line x1="250.546" y1="873.211" x2="224.546" y2="817.211" stroke="#C9CFDE"></line><line x1="250.503" y1="924.948" x2="255.503" y2="876.948" stroke="#C9CFDE"></line><line x1="354.281" y1="852.414" x2="251.281" y2="922.414" stroke="#C9CFDE"></line><line x1="461.393" y1="713.309" x2="354.393" y2="849.309" stroke="#C9CFDE"></line><line x1="785.764" y1="884.441" x2="460.764" y2="710.441" stroke="#C9CFDE"></line><line x1="877.205" y1="840.456" x2="786.205" y2="881.456" stroke="#C9CFDE"></line><line x1="905.548" y1="898.215" x2="876.548" y2="837.215" stroke="#C9CFDE"></line><line x1="898.502" y1="964.95" x2="905.503" y2="894.95" stroke="#C9CFDE"></line><line x1="994.088" y1="945.492" x2="899.088" y2="962.492" stroke="#C9CFDE"></line><line x1="1112.25" y1="873.432" x2="994.252" y2="942.432" stroke="#C9CFDE"></line><line x1="1232.71" y1="958.404" x2="1111.71" y2="870.404" stroke="#C9CFDE"></line><line x1="1264.34" y1="939.368" x2="1239.34" y2="962.368" stroke="#C9CFDE"></line><line x1="1315.75" y1="970.431" x2="1269.75" y2="943.431" stroke="#C9CFDE"></line><line x1="1117.23" y1="867.556" x2="1322.23" y2="973.556" stroke="#C9CFDE"></line><line x1="1116.54" y1="868.187" x2="1081.54" y2="781.187" stroke="#C9CFDE"></line><line x1="1185.11" y1="758.488" x2="1082.11" y2="781.488" stroke="#C9CFDE"></line><line x1="1315.91" y1="591.491" x2="1143.91" y2="558.491" stroke="#C9CFDE"></line><line x1="1321.82" y1="584.466" x2="1254.82" y2="558.466" stroke="#C9CFDE"></line><line x1="1143.98" y1="557.5" x2="1254.98" y2="553.5" stroke="#C9CFDE"></line><line x1="1106.4" y1="495.707" x2="1148.41" y2="553.707" stroke="#C9CFDE"></line><line x1="1099.09" y1="489.491" x2="891.094" y2="529.491" stroke="#C9CFDE"></line><line x1="1106.33" y1="489.371" x2="954.335" y2="626.371" stroke="#C9CFDE"></line><line x1="876.531" y1="829.828" x2="949.531" y2="630.828" stroke="#C9CFDE"></line><line x1="950.138" y1="631.481" x2="688.138" y2="706.481" stroke="#C9CFDE"></line><line x1="1211.89" y1="514.488" x2="1098.89" y2="489.488" stroke="#C9CFDE"></line><line x1="1292.98" y1="514.499" x2="1211.98" y2="510.499" stroke="#C9CFDE"></line><line x1="1331.47" y1="405.17" x2="1293.47" y2="510.17" stroke="#C9CFDE"></line><line x1="1247.1" y1="383.51" x2="1331.1" y2="400.51" stroke="#C9CFDE"></line><line x1="1172.1" y1="367.51" x2="1251.1" y2="383.51" stroke="#C9CFDE"></line><line x1="1219.43" y1="296.256" x2="1176.43" y2="368.256" stroke="#C9CFDE"></line><line x1="1312.14" y1="327.479" x2="1176.14" y2="368.479" stroke="#C9CFDE"></line><line x1="1322.32" y1="248.386" x2="1176.32" y2="368.386" stroke="#C9CFDE"></line><line x1="1312.25" y1="146.433" x2="1167.25" y2="230.433" stroke="#C9CFDE"></line><line x1="1197.23" y1="87.5545" x2="1303.23" y2="141.554" stroke="#C9CFDE"></line><line x1="1197.02" y1="88.4995" x2="915.021" y2="100.5" stroke="#C9CFDE"></line><line x1="678.744" y1="240.571" x2="914.744" y2="99.5708" stroke="#C9CFDE"></line><line x1="827.535" y1="310.815" x2="909.535" y2="104.815" stroke="#C9CFDE"></line><line x1="731.607" y1="331.691" x2="909.607" y2="104.691" stroke="#C9CFDE"></line><line x1="737.886" y1="331.513" x2="827.886" y2="310.513" stroke="#C9CFDE"></line><line x1="732.348" y1="332.359" x2="669.348" y2="393.359" stroke="#C9CFDE"></line><line x1="833.935" y1="306.307" x2="992.935" y2="206.307" stroke="#ACF43B" stroke-width="4"></line><line x1="439.986" y1="401" x2="650.986" y2="398" stroke="#6812D8" stroke-width="2"></line><line x1="668.031" y1="396.39" x2="798.031" y2="547.39" stroke="#6812D8" stroke-width="8"></line><line x1="991.835" y1="204.449" x2="1150.83" y2="445.449" stroke="#6812D8" stroke-width="2"></line><line x1="1006.69" y1="204.28" x2="1176.69" y2="368.28" stroke="#6812D8" stroke-width="2"></line><line x1="1006.37" y1="204.072" x2="1316.37" y2="328.072" stroke="#6812D8" stroke-width="2"></line><line x1="1006.35" y1="204.647" x2="1262.35" y2="461.647" stroke="#6812D8"></line><line x1="1316.47" y1="325.183" x2="1262.47" y2="462.183" stroke="#6812D8"></line><line x1="1266" y1="462.5" x2="1167" y2="462.5" stroke="#6812D8"></line><line x1="1161.13" y1="467.482" x2="823.133" y2="560.482" stroke="#6812D8"></line><line x1="823.505" y1="582.137" x2="1279.51" y2="849.137" stroke="#6812D8" stroke-width="2"></line><line x1="683.134" y1="398.009" x2="1150.13" y2="461.009" stroke="#6812D8" stroke-width="2"></line><line x1="290.299" y1="474.046" x2="584.299" y2="566.046" stroke="#6812D8" stroke-width="2"></line><line x1="295.813" y1="474.018" x2="657.811" y2="404.963" stroke="#6812D8" stroke-width="2"></line><line x1="302.826" y1="474.436" x2="356.826" y2="553.436" stroke="#6812D8" stroke-width="2"></line><line x1="289.528" y1="470.118" x2="403.528" y2="409.118" stroke="#6812D8" stroke-width="2"></line><line x1="277.601" y1="467.302" x2="221.601" y2="393.302" stroke="#6812D8"></line><line x1="283.874" y1="471.484" x2="130.874" y2="431.484" stroke="#6812D8"></line><line x1="284.367" y1="471.339" x2="91.3673" y2="680.339" stroke="#6812D8"></line><line x1="284.495" y1="471.071" x2="265.495" y2="603.071" stroke="#6812D8"></line><line x1="230.434" y1="541.751" x2="265.434" y2="602.751" stroke="#6812D8"></line><line x1="95.804" y1="679.54" x2="264.804" y2="607.54" stroke="#6812D8"></line><line x1="583.972" y1="708.499" x2="90.9716" y2="680.499" stroke="#6812D8"></line><line x1="590.5" y1="597.009" x2="588.5" y2="704.009" stroke="#6812D8"></line><line x1="795.388" y1="563.981" x2="600.388" y2="582.981" stroke="#6812D8" stroke-width="8"></line><line x1="878.519" y1="815.136" x2="808.519" y2="567.136" stroke="#6812D8"></line><line x1="1278.96" y1="850.499" x2="892.964" y2="822.499" stroke="#6812D8"></line><line x1="1214.9" y1="872.51" x2="1292.9" y2="856.51" stroke="#6812D8"></line><line x1="1265.51" y1="938.922" x2="1278.51" y2="856.922" stroke="#6812D8"></line><line x1="1215.39" y1="872.688" x2="1262.39" y2="931.688" stroke="#6812D8"></line><line x1="893.052" y1="832.503" x2="1211.05" y2="865.503" stroke="#6812D8"></line><line x1="289.551" y1="474.781" x2="366.551" y2="316.781" stroke="#6812D8"></line><line x1="295.528" y1="479.165" x2="233.528" y2="302.165" stroke="#6812D8"></line><line x1="301.679" y1="483.383" x2="90.6787" y2="306.383" stroke="#6812D8"></line><line x1="283.559" y1="467.235" x2="152.559" y2="221.235" stroke="#6812D8"></line><line x1="668.685" y1="407.555" x2="603.685" y2="561.555" stroke="#6812D8" stroke-width="8"></line><line x1="555.328" y1="413.903" x2="656.328" y2="259.903" stroke="#ACF43B" stroke-width="4"></line><line x1="807.505" y1="432.328" x2="656.505" y2="262.328" stroke="#ACF43B" stroke-width="4"></line><line x1="817.009" y1="438.263" x2="1166.01" y2="239.263" stroke="#ACF43B" stroke-width="4"></line><line x1="690.623" y1="684.55" x2="1165.62" y2="233.55" stroke="#ACF43B" stroke-width="4"></line><line x1="480.898" y1="702.003" x2="676.898" y2="692.003" stroke="#ACF43B" stroke-width="4"></line><line x1="1186.85" y1="758.995" x2="476.83" y2="706.29" stroke="#ACF43B" stroke-width="4"></line><line x1="708.138" y1="690.01" x2="1183.12" y2="756.305" stroke="#ACF43B" stroke-width="2"></line><line x1="409.6" y1="478.2" x2="677.6" y2="679.2" stroke="#ACF43B" stroke-width="2"></line><line x1="454.899" y1="227.562" x2="545.899" y2="414.562" stroke="#ACF43B" stroke-width="2"></line><line x1="511.851" y1="122.525" x2="450.851" y2="221.525" stroke="#ACF43B" stroke-width="2"></line><line x1="381.591" y1="170.087" x2="506.591" y2="114.087" stroke="#ACF43B" stroke-width="2"></line><line x1="295.448" y1="227.166" x2="381.448" y2="170.166" stroke="#ACF43B" stroke-width="2"></line><line x1="222.721" y1="150.307" x2="296.721" y2="227.307" stroke="#ACF43B" stroke-width="2"></line><line x1="328.598" y1="72.8018" x2="222.598" y2="151.802" stroke="#ACF43B" stroke-width="2"></line><line x1="295.022" y1="220.79" x2="327.022" y2="71.79" stroke="#ACF43B" stroke-width="2"></line><line x1="510.704" y1="122.955" x2="336.704" y2="68.9551" stroke="#ACF43B" stroke-width="2"></line><line x1="1114.99" y1="123" x2="517.988" y2="116" stroke="#ACF43B" stroke-width="2"></line><line x1="672.71" y1="250.043" x2="1121.71" y2="114.043" stroke="#ACF43B" stroke-width="2"></line><line x1="1161.17" y1="160.985" x2="680.172" y2="244.985" stroke="#ACF43B" stroke-width="2"></line><line x1="1197.45" y1="95.2236" x2="1168.45" y2="153.224" stroke="#ACF43B"></line><line x1="1114.82" y1="121.533" x2="1203.82" y2="87.5329" stroke="#ACF43B"></line><line x1="1160.61" y1="165.308" x2="1121.61" y2="115.308" stroke="#ACF43B"></line><line x1="1328.77" y1="241.444" x2="1167.77" y2="158.444" stroke="#ACF43B"></line><line x1="1176.02" y1="234.5" x2="1325.02" y2="240.541" stroke="#ACF43B"></line><line x1="1220.61" y1="297.31" x2="1171.61" y2="235.351" stroke="#ACF43B"></line><line x1="1099.83" y1="337.528" x2="1216.83" y2="296.569" stroke="#ACF43B"></line><circle cx="286" cy="474" r="23.5" fill="white" stroke="#6812D8"></circle><circle cx="286" cy="474" r="18.24" fill="#6812D8"></circle><path fill-rule="evenodd" clip-rule="evenodd" d="M283.12 474C284.973 474 286.48 472.493 286.48 470.64C286.48 468.787 284.973 467.28 283.12 467.28C281.267 467.28 279.76 468.787 279.76 470.64C279.76 472.493 281.267 474 283.12 474ZM283.12 469.2C283.917 469.2 284.56 469.843 284.56 470.64C284.56 471.437 283.917 472.08 283.12 472.08C282.323 472.08 281.68 471.437 281.68 470.64C281.68 469.843 282.323 469.2 283.12 469.2ZM279.059 478.8H283.168C283.139 478.953 283.12 479.117 283.12 479.28V480.72H276.4V479.28C276.4 477.043 280.874 475.92 283.12 475.92C283.658 475.92 284.32 475.987 285.021 476.112C284.339 476.573 283.773 477.149 283.446 477.849C283.394 477.849 283.338 477.847 283.283 477.845C283.228 477.842 283.173 477.84 283.12 477.84C281.651 477.84 280.01 478.32 279.059 478.8ZM290.32 476.4C288.554 476.4 285.04 477.369 285.04 479.28V480.72H295.6V479.28C295.6 477.369 292.086 476.4 290.32 476.4ZM292.72 472.56C292.72 473.462 292.211 474.24 291.482 474.653C291.136 474.845 290.742 474.96 290.32 474.96C289.898 474.96 289.504 474.845 289.158 474.653C288.429 474.24 287.92 473.462 287.92 472.56C287.92 471.235 288.995 470.16 290.32 470.16C291.645 470.16 292.72 471.235 292.72 472.56Z" fill="#F5F5F5"></path><circle cx="357" cy="558" r="24.5" fill="white" stroke="#6812D8"></circle><circle cx="357" cy="558" r="19" fill="#6812D8"></circle><path fill-rule="evenodd" clip-rule="evenodd" d="M354 558C355.93 558 357.5 556.43 357.5 554.5C357.5 552.57 355.93 551 354 551C352.07 551 350.5 552.57 350.5 554.5C350.5 556.43 352.07 558 354 558ZM354 553C354.83 553 355.5 553.67 355.5 554.5C355.5 555.33 354.83 556 354 556C353.17 556 352.5 555.33 352.5 554.5C352.5 553.67 353.17 553 354 553ZM349.77 563H354.05C354.02 563.16 354 563.33 354 563.5V565H347V563.5C347 561.17 351.66 560 354 560C354.56 560 355.25 560.07 355.98 560.2C355.27 560.68 354.68 561.28 354.34 562.01C354.285 562.01 354.228 562.008 354.17 562.005L354.17 562.005L354.17 562.005C354.112 562.002 354.055 562 354 562C352.47 562 350.76 562.5 349.77 563ZM361.5 560.5C359.66 560.5 356 561.51 356 563.5V565H367V563.5C367 561.51 363.34 560.5 361.5 560.5ZM364 556.5C364 557.44 363.47 558.25 362.71 558.68C362.35 558.88 361.94 559 361.5 559C361.06 559 360.65 558.88 360.29 558.68C359.53 558.25 359 557.44 359 556.5C359 555.12 360.12 554 361.5 554C362.88 554 364 555.12 364 556.5Z" fill="#F5F5F5"></path><circle cx="420" cy="400" r="24.5" fill="white" stroke="#6812D8"></circle><circle cx="420" cy="400" r="19" fill="#6812D8"></circle><path fill-rule="evenodd" clip-rule="evenodd" d="M417 400C418.93 400 420.5 398.43 420.5 396.5C420.5 394.57 418.93 393 417 393C415.07 393 413.5 394.57 413.5 396.5C413.5 398.43 415.07 400 417 400ZM417 395C417.83 395 418.5 395.67 418.5 396.5C418.5 397.33 417.83 398 417 398C416.17 398 415.5 397.33 415.5 396.5C415.5 395.67 416.17 395 417 395ZM412.77 405H417.05C417.02 405.16 417 405.33 417 405.5V407H410V405.5C410 403.17 414.66 402 417 402C417.56 402 418.25 402.07 418.98 402.2C418.27 402.68 417.68 403.28 417.34 404.01C417.285 404.01 417.228 404.008 417.17 404.005L417.17 404.005L417.17 404.005C417.112 404.002 417.055 404 417 404C415.47 404 413.76 404.5 412.77 405ZM424.5 402.5C422.66 402.5 419 403.51 419 405.5V407H430V405.5C430 403.51 426.34 402.5 424.5 402.5ZM427 398.5C427 399.44 426.47 400.25 425.71 400.68C425.35 400.88 424.94 401 424.5 401C424.06 401 423.65 400.88 423.29 400.68C422.53 400.25 422 399.44 422 398.5C422 397.12 423.12 396 424.5 396C425.88 396 427 397.12 427 398.5Z" fill="#F5F5F5"></path><circle cx="593" cy="571" r="35.5" fill="white" stroke="#6812D8"></circle><circle cx="593" cy="571" r="27.36" fill="#6812D8"></circle><path fill-rule="evenodd" clip-rule="evenodd" d="M588.68 571C591.459 571 593.72 568.74 593.72 565.96C593.72 563.181 591.459 560.92 588.68 560.92C585.901 560.92 583.64 563.181 583.64 565.96C583.64 568.74 585.901 571 588.68 571ZM588.68 563.8C589.875 563.8 590.84 564.765 590.84 565.96C590.84 567.156 589.875 568.12 588.68 568.12C587.485 568.12 586.52 567.156 586.52 565.96C586.52 564.765 587.485 563.8 588.68 563.8ZM582.589 578.2H588.752C588.709 578.431 588.68 578.676 588.68 578.92V581.08H578.6V578.92C578.6 575.565 585.31 573.88 588.68 573.88C589.486 573.88 590.48 573.981 591.531 574.168C590.509 574.86 589.659 575.724 589.17 576.775C589.09 576.775 589.008 576.771 588.925 576.768C588.842 576.764 588.759 576.76 588.68 576.76C586.477 576.76 584.014 577.48 582.589 578.2ZM599.48 574.6C596.83 574.6 591.56 576.055 591.56 578.92V581.08H607.4V578.92C607.4 576.055 602.13 574.6 599.48 574.6ZM603.08 568.84C603.08 570.194 602.317 571.36 601.222 571.98C600.704 572.268 600.114 572.44 599.48 572.44C598.846 572.44 598.256 572.268 597.738 571.98C596.643 571.36 595.88 570.194 595.88 568.84C595.88 566.853 597.493 565.24 599.48 565.24C601.467 565.24 603.08 566.853 603.08 568.84Z" fill="#F5F5F5"></path><circle cx="670" cy="400" r="24.5" fill="white" stroke="#6812D8"></circle><circle cx="670" cy="400" r="19" fill="#6812D8"></circle><path fill-rule="evenodd" clip-rule="evenodd" d="M667 400C668.93 400 670.5 398.43 670.5 396.5C670.5 394.57 668.93 393 667 393C665.07 393 663.5 394.57 663.5 396.5C663.5 398.43 665.07 400 667 400ZM667 395C667.83 395 668.5 395.67 668.5 396.5C668.5 397.33 667.83 398 667 398C666.17 398 665.5 397.33 665.5 396.5C665.5 395.67 666.17 395 667 395ZM662.77 405H667.05C667.02 405.16 667 405.33 667 405.5V407H660V405.5C660 403.17 664.66 402 667 402C667.56 402 668.25 402.07 668.98 402.2C668.27 402.68 667.68 403.28 667.34 404.01C667.285 404.01 667.228 404.008 667.17 404.005L667.17 404.005L667.17 404.005C667.112 404.002 667.055 404 667 404C665.47 404 663.76 404.5 662.77 405ZM674.5 402.5C672.66 402.5 669 403.51 669 405.5V407H680V405.5C680 403.51 676.34 402.5 674.5 402.5ZM677 398.5C677 399.44 676.47 400.25 675.71 400.68C675.35 400.88 674.94 401 674.5 401C674.06 401 673.65 400.88 673.29 400.68C672.53 400.25 672 399.44 672 398.5C672 397.12 673.12 396 674.5 396C675.88 396 677 397.12 677 398.5Z" fill="#F5F5F5"></path><circle cx="809" cy="565" r="31.5" fill="white" stroke="#6812D8"></circle><circle cx="809" cy="565" r="24.32" fill="#6812D8"></circle><path fill-rule="evenodd" clip-rule="evenodd" d="M805.16 565C807.63 565 809.64 562.99 809.64 560.52C809.64 558.05 807.63 556.04 805.16 556.04C802.69 556.04 800.68 558.05 800.68 560.52C800.68 562.99 802.69 565 805.16 565ZM805.16 558.6C806.222 558.6 807.08 559.458 807.08 560.52C807.08 561.582 806.222 562.44 805.16 562.44C804.098 562.44 803.24 561.582 803.24 560.52C803.24 559.458 804.098 558.6 805.16 558.6ZM799.746 571.4H805.224C805.186 571.605 805.16 571.822 805.16 572.04V573.96H796.2V572.04C796.2 569.058 802.165 567.56 805.16 567.56C805.877 567.56 806.76 567.65 807.694 567.816C806.786 568.43 806.03 569.198 805.595 570.133C805.525 570.133 805.451 570.13 805.378 570.126C805.304 570.123 805.23 570.12 805.16 570.12C803.202 570.12 801.013 570.76 799.746 571.4ZM814.76 568.2C812.405 568.2 807.72 569.493 807.72 572.04V573.96H821.8V572.04C821.8 569.493 817.115 568.2 814.76 568.2ZM817.96 563.08C817.96 564.283 817.282 565.32 816.309 565.87C815.848 566.126 815.323 566.28 814.76 566.28C814.197 566.28 813.672 566.126 813.211 565.87C812.238 565.32 811.56 564.283 811.56 563.08C811.56 561.314 812.994 559.88 814.76 559.88C816.526 559.88 817.96 561.314 817.96 563.08Z" fill="#F5F5F5"></path><circle cx="1003" cy="203" r="24.5" fill="white" stroke="#6812D8"></circle><circle cx="1003" cy="203" r="19" fill="#6812D8"></circle><path fill-rule="evenodd" clip-rule="evenodd" d="M1000 203C1001.93 203 1003.5 201.43 1003.5 199.5C1003.5 197.57 1001.93 196 1000 196C998.07 196 996.5 197.57 996.5 199.5C996.5 201.43 998.07 203 1000 203ZM1000 198C1000.83 198 1001.5 198.67 1001.5 199.5C1001.5 200.33 1000.83 201 1000 201C999.17 201 998.5 200.33 998.5 199.5C998.5 198.67 999.17 198 1000 198ZM995.77 208H1000.05C1000.02 208.16 1000 208.33 1000 208.5V210H993V208.5C993 206.17 997.66 205 1000 205C1000.56 205 1001.25 205.07 1001.98 205.2C1001.27 205.68 1000.68 206.28 1000.34 207.01C1000.29 207.01 1000.23 207.008 1000.17 207.005L1000.17 207.005L1000.17 207.005C1000.11 207.002 1000.05 207 1000 207C998.47 207 996.76 207.5 995.77 208ZM1007.5 205.5C1005.66 205.5 1002 206.51 1002 208.5V210H1013V208.5C1013 206.51 1009.34 205.5 1007.5 205.5ZM1010 201.5C1010 202.44 1009.47 203.25 1008.71 203.68C1008.35 203.88 1007.94 204 1007.5 204C1007.06 204 1006.65 203.88 1006.29 203.68C1005.53 203.25 1005 202.44 1005 201.5C1005 200.12 1006.12 199 1007.5 199C1008.88 199 1010 200.12 1010 201.5Z" fill="#F5F5F5"></path><circle cx="1158" cy="456" r="24.5" fill="white" stroke="#6812D8"></circle><circle cx="1158" cy="456" r="19" fill="#6812D8"></circle><path fill-rule="evenodd" clip-rule="evenodd" d="M1155 456C1156.93 456 1158.5 454.43 1158.5 452.5C1158.5 450.57 1156.93 449 1155 449C1153.07 449 1151.5 450.57 1151.5 452.5C1151.5 454.43 1153.07 456 1155 456ZM1155 451C1155.83 451 1156.5 451.67 1156.5 452.5C1156.5 453.33 1155.83 454 1155 454C1154.17 454 1153.5 453.33 1153.5 452.5C1153.5 451.67 1154.17 451 1155 451ZM1150.77 461H1155.05C1155.02 461.16 1155 461.33 1155 461.5V463H1148V461.5C1148 459.17 1152.66 458 1155 458C1155.56 458 1156.25 458.07 1156.98 458.2C1156.27 458.68 1155.68 459.28 1155.34 460.01C1155.29 460.01 1155.23 460.008 1155.17 460.005L1155.17 460.005L1155.17 460.005C1155.11 460.002 1155.05 460 1155 460C1153.47 460 1151.76 460.5 1150.77 461ZM1162.5 458.5C1160.66 458.5 1157 459.51 1157 461.5V463H1168V461.5C1168 459.51 1164.34 458.5 1162.5 458.5ZM1165 454.5C1165 455.44 1164.47 456.25 1163.71 456.68C1163.35 456.88 1162.94 457 1162.5 457C1162.06 457 1161.65 456.88 1161.29 456.68C1160.53 456.25 1160 455.44 1160 454.5C1160 453.12 1161.12 452 1162.5 452C1163.88 452 1165 453.12 1165 454.5Z" fill="#F5F5F5"></path><circle cx="1176" cy="368" r="17.5" fill="white" stroke="#6812D8"></circle><circle cx="1176" cy="368" r="13.68" fill="#6812D8"></circle><path fill-rule="evenodd" clip-rule="evenodd" d="M1173.84 368C1175.23 368 1176.36 366.87 1176.36 365.48C1176.36 364.09 1175.23 362.96 1173.84 362.96C1172.45 362.96 1171.32 364.09 1171.32 365.48C1171.32 366.87 1172.45 368 1173.84 368ZM1173.84 364.4C1174.44 364.4 1174.92 364.882 1174.92 365.48C1174.92 366.078 1174.44 366.56 1173.84 366.56C1173.24 366.56 1172.76 366.078 1172.76 365.48C1172.76 364.882 1173.24 364.4 1173.84 364.4ZM1170.79 371.6H1173.88C1173.85 371.715 1173.84 371.838 1173.84 371.96V373.04H1168.8V371.96C1168.8 370.282 1172.16 369.44 1173.84 369.44C1174.24 369.44 1174.74 369.49 1175.27 369.584C1174.75 369.93 1174.33 370.362 1174.08 370.887C1174.05 370.887 1174 370.885 1173.96 370.884C1173.92 370.882 1173.88 370.88 1173.84 370.88C1172.74 370.88 1171.51 371.24 1170.79 371.6ZM1179.24 369.8C1177.92 369.8 1175.28 370.527 1175.28 371.96V373.04H1183.2V371.96C1183.2 370.527 1180.56 369.8 1179.24 369.8ZM1181.04 366.92C1181.04 367.597 1180.66 368.18 1180.11 368.49C1179.85 368.634 1179.56 368.72 1179.24 368.72C1178.92 368.72 1178.63 368.634 1178.37 368.49C1177.82 368.18 1177.44 367.597 1177.44 366.92C1177.44 365.926 1178.25 365.12 1179.24 365.12C1180.23 365.12 1181.04 365.926 1181.04 366.92Z" fill="#F5F5F5"></path><circle cx="1281" cy="854" r="24.5" fill="white" stroke="#6812D8"></circle><circle cx="1281" cy="854" r="19" fill="#6812D8"></circle><path fill-rule="evenodd" clip-rule="evenodd" d="M1278 854C1279.93 854 1281.5 852.43 1281.5 850.5C1281.5 848.57 1279.93 847 1278 847C1276.07 847 1274.5 848.57 1274.5 850.5C1274.5 852.43 1276.07 854 1278 854ZM1278 849C1278.83 849 1279.5 849.67 1279.5 850.5C1279.5 851.33 1278.83 852 1278 852C1277.17 852 1276.5 851.33 1276.5 850.5C1276.5 849.67 1277.17 849 1278 849ZM1273.77 859H1278.05C1278.02 859.16 1278 859.33 1278 859.5V861H1271V859.5C1271 857.17 1275.66 856 1278 856C1278.56 856 1279.25 856.07 1279.98 856.2C1279.27 856.68 1278.68 857.28 1278.34 858.01C1278.29 858.01 1278.23 858.008 1278.17 858.005L1278.17 858.005L1278.17 858.005C1278.11 858.002 1278.05 858 1278 858C1276.47 858 1274.76 858.5 1273.77 859ZM1285.5 856.5C1283.66 856.5 1280 857.51 1280 859.5V861H1291V859.5C1291 857.51 1287.34 856.5 1285.5 856.5ZM1288 852.5C1288 853.44 1287.47 854.25 1286.71 854.68C1286.35 854.88 1285.94 855 1285.5 855C1285.06 855 1284.65 854.88 1284.29 854.68C1283.53 854.25 1283 853.44 1283 852.5C1283 851.12 1284.12 850 1285.5 850C1286.88 850 1288 851.12 1288 852.5Z" fill="#F5F5F5"></path><circle cx="882" cy="829" r="24.5" fill="white" stroke="#6812D8"></circle><circle cx="882" cy="829" r="19" fill="#6812D8"></circle><path fill-rule="evenodd" clip-rule="evenodd" d="M879 829C880.93 829 882.5 827.43 882.5 825.5C882.5 823.57 880.93 822 879 822C877.07 822 875.5 823.57 875.5 825.5C875.5 827.43 877.07 829 879 829ZM879 824C879.83 824 880.5 824.67 880.5 825.5C880.5 826.33 879.83 827 879 827C878.17 827 877.5 826.33 877.5 825.5C877.5 824.67 878.17 824 879 824ZM874.77 834H879.05C879.02 834.16 879 834.33 879 834.5V836H872V834.5C872 832.17 876.66 831 879 831C879.56 831 880.25 831.07 880.98 831.2C880.27 831.68 879.68 832.28 879.34 833.01C879.285 833.01 879.228 833.008 879.17 833.005L879.17 833.005L879.17 833.005C879.112 833.002 879.055 833 879 833C877.47 833 875.76 833.5 874.77 834ZM886.5 831.5C884.66 831.5 881 832.51 881 834.5V836H892V834.5C892 832.51 888.34 831.5 886.5 831.5ZM889 827.5C889 828.44 888.47 829.25 887.71 829.68C887.35 829.88 886.94 830 886.5 830C886.06 830 885.65 829.88 885.29 829.68C884.53 829.25 884 828.44 884 827.5C884 826.12 885.12 825 886.5 825C887.88 825 889 826.12 889 827.5Z" fill="#F5F5F5"></path><circle cx="445" cy="804" r="24.5" fill="white" stroke="#ACF43B"></circle><circle cx="445" cy="804" r="19" fill="#ACF43B"></circle><path fill-rule="evenodd" clip-rule="evenodd" d="M450.625 796.625H438.375C437.412 796.625 436.625 797.412 436.625 798.375V810.625C436.625 811.587 437.412 812.375 438.375 812.375H450.625C451.587 812.375 452.375 811.587 452.375 810.625V798.375C452.375 797.412 451.587 796.625 450.625 796.625ZM450.625 810.625H438.375V798.375H450.625V810.625ZM441.875 802.75H440.125V808.875H441.875V802.75ZM443.625 800.125H445.375V808.875H443.625V800.125ZM448.875 805.375H447.125V808.875H448.875V805.375Z" fill="#6812D8"></path><circle cx="580" cy="810" r="24.5" fill="white" stroke="#ACF43B"></circle><circle cx="580" cy="810" r="19" fill="#ACF43B"></circle><path fill-rule="evenodd" clip-rule="evenodd" d="M571.188 806.125L579.5 801.75L587.812 806.125V807.875H571.188V806.125ZM579.5 803.727L584.059 806.125H574.941L579.5 803.727ZM573.375 809.625H575.125V815.75H573.375V809.625ZM578.625 815.75V809.625H580.375V815.75H578.625ZM587.812 819.25V817.5H571.188V819.25H587.812ZM583.875 809.625H585.625V815.75H583.875V809.625Z" fill="white"></path><circle cx="470" cy="701" r="24.5" fill="white" stroke="#ACF43B"></circle><circle cx="470" cy="701" r="19" fill="#ACF43B"></circle><path fill-rule="evenodd" clip-rule="evenodd" d="M461.188 697.125L469.5 692.75L477.812 697.125V698.875H461.188V697.125ZM469.5 694.727L474.059 697.125H464.941L469.5 694.727ZM463.375 700.625H465.125V706.75H463.375V700.625ZM468.625 706.75V700.625H470.375V706.75H468.625ZM477.812 710.25V708.5H461.188V710.25H477.812ZM473.875 700.625H475.625V706.75H473.875V700.625Z" fill="white"></path><circle cx="313" cy="726" r="24.5" fill="white" stroke="#ACF43B"></circle><circle cx="313" cy="726" r="19" fill="#ACF43B"></circle><path fill-rule="evenodd" clip-rule="evenodd" d="M314.967 719.5H318.625C319.587 719.5 320.375 720.287 320.375 721.25V733.5C320.375 734.462 319.587 735.25 318.625 735.25H306.375C306.253 735.25 306.139 735.241 306.025 735.224C305.684 735.154 305.377 734.979 305.141 734.743C304.984 734.576 304.852 734.392 304.765 734.183C304.677 733.972 304.625 733.736 304.625 733.5V721.25C304.625 721.005 304.677 720.777 304.765 720.576C304.852 720.366 304.984 720.174 305.141 720.016C305.377 719.78 305.684 719.605 306.025 719.535C306.139 719.509 306.253 719.5 306.375 719.5H310.032C310.4 718.485 311.363 717.75 312.5 717.75C313.637 717.75 314.6 718.485 314.967 719.5ZM308.125 724.75V723H316.875V724.75H308.125ZM316.875 728.25V726.5H308.125V728.25H316.875ZM314.25 730H308.125V731.75H314.25V730ZM312.5 719.281C312.859 719.281 313.156 719.579 313.156 719.938C313.156 720.296 312.859 720.594 312.5 720.594C312.141 720.594 311.844 720.296 311.844 719.938C311.844 719.579 312.141 719.281 312.5 719.281ZM306.375 733.5H318.625V721.25H306.375V733.5Z" fill="#6812D8"></path><circle cx="357" cy="848" r="24.5" fill="white" stroke="#ACF43B"></circle><circle cx="357" cy="848" r="19" fill="#ACF43B"></circle><path fill-rule="evenodd" clip-rule="evenodd" d="M357.879 846.671L365.824 854.616C366.174 854.966 366.174 855.517 365.824 855.85L363.811 857.862C363.47 858.203 362.919 858.203 362.578 857.862L354.606 849.891C352.576 850.652 350.205 850.223 348.578 848.596C346.565 846.592 346.381 843.451 348.009 841.228L351.36 844.58L352.603 843.346L349.243 839.977C351.474 838.35 354.606 838.533 356.619 840.546C358.273 842.208 358.693 844.623 357.879 846.671ZM354.921 847.738L363.199 856.016L363.969 855.237L355.7 846.968C356.103 846.452 356.365 845.875 356.47 845.253C356.689 844.037 356.33 842.733 355.385 841.788C354.554 840.966 353.46 840.581 352.375 840.642L355.079 843.346L351.369 847.056L348.665 844.352C348.604 845.437 348.989 846.54 349.82 847.362C350.73 848.272 351.981 848.631 353.171 848.456C353.793 848.368 354.388 848.132 354.921 847.738Z" fill="white"></path><circle cx="687" cy="689" r="47.5" fill="white" stroke="#ACF43B"></circle><circle cx="687" cy="689" r="36.48" fill="#ACF43B"></circle><path fill-rule="evenodd" clip-rule="evenodd" d="M670.08 681.56L686.04 673.16L702 681.56V684.92H670.08V681.56ZM686.04 676.957L694.793 681.56H677.287L686.04 676.957ZM674.28 688.28H677.64V700.04H674.28V688.28ZM684.36 700.04V688.28H687.72V700.04H684.36ZM702 706.76V703.4H670.08V706.76H702ZM694.44 688.28H697.8V700.04H694.44V688.28Z" fill="white"></path><circle cx="549" cy="425" r="24.5" fill="white" stroke="#ACF43B"></circle><circle cx="549" cy="425" r="19" fill="#ACF43B"></circle><path fill-rule="evenodd" clip-rule="evenodd" d="M540.188 421.125L548.5 416.75L556.812 421.125V422.875H540.188V421.125ZM548.5 418.727L553.059 421.125H543.941L548.5 418.727ZM542.375 424.625H544.125V430.75H542.375V424.625ZM547.625 430.75V424.625H549.375V430.75H547.625ZM556.812 434.25V432.5H540.188V434.25H556.812ZM552.875 424.625H554.625V430.75H552.875V424.625Z" fill="white"></path><circle cx="664" cy="253" r="24.5" fill="white" stroke="#ACF43B"></circle><circle cx="664" cy="253" r="19" fill="#ACF43B"></circle><path fill-rule="evenodd" clip-rule="evenodd" d="M655.188 249.125L663.5 244.75L671.812 249.125V250.875H655.188V249.125ZM663.5 246.727L668.059 249.125H658.941L663.5 246.727ZM657.375 252.625H659.125V258.75H657.375V252.625ZM662.625 258.75V252.625H664.375V258.75H662.625ZM671.812 262.25V260.5H655.188V262.25H671.812ZM667.875 252.625H669.625V258.75H667.875V252.625Z" fill="white"></path><circle cx="832" cy="310" r="24.5" fill="white" stroke="#ACF43B"></circle><circle cx="832" cy="310" r="19" fill="#ACF43B"></circle><path fill-rule="evenodd" clip-rule="evenodd" d="M823.188 306.125L831.5 301.75L839.812 306.125V307.875H823.188V306.125ZM831.5 303.727L836.059 306.125H826.941L831.5 303.727ZM825.375 309.625H827.125V315.75H825.375V309.625ZM830.625 315.75V309.625H832.375V315.75H830.625ZM839.812 319.25V317.5H823.188V319.25H839.812ZM835.875 309.625H837.625V315.75H835.875V309.625Z" fill="white"></path><circle cx="813" cy="444" r="24.5" fill="white" stroke="#ACF43B"></circle><circle cx="813" cy="444" r="19" fill="#ACF43B"></circle><path fill-rule="evenodd" clip-rule="evenodd" d="M804.188 440.125L812.5 435.75L820.812 440.125V441.875H804.188V440.125ZM812.5 437.727L817.059 440.125H807.941L812.5 437.727ZM806.375 443.625H808.125V449.75H806.375V443.625ZM811.625 449.75V443.625H813.375V449.75H811.625ZM820.812 453.25V451.5H804.188V453.25H820.812ZM816.875 443.625H818.625V449.75H816.875V443.625Z" fill="white"></path><circle cx="1164" cy="234" r="24.5" fill="white" stroke="#ACF43B"></circle><circle cx="1164" cy="234" r="19" fill="#ACF43B"></circle><path fill-rule="evenodd" clip-rule="evenodd" d="M1155.19 230.125L1163.5 225.75L1171.81 230.125V231.875H1155.19V230.125ZM1163.5 227.727L1168.06 230.125H1158.94L1163.5 227.727ZM1157.38 233.625H1159.12V239.75H1157.38V233.625ZM1162.62 239.75V233.625H1164.38V239.75H1162.62ZM1171.81 243.25V241.5H1155.19V243.25H1171.81ZM1167.88 233.625H1169.62V239.75H1167.88V233.625Z" fill="white"></path><circle cx="1189" cy="754" r="24.5" fill="white" stroke="#ACF43B"></circle><circle cx="1189" cy="754" r="19" fill="#ACF43B"></circle><path fill-rule="evenodd" clip-rule="evenodd" d="M1192.73 744.752L1191.59 745.89C1192.9 746.844 1193.75 748.384 1193.75 750.125H1183.25C1183.25 748.384 1184.1 746.853 1185.39 745.899L1184.25 744.752C1184.07 744.577 1184.07 744.306 1184.25 744.131C1184.42 743.956 1184.69 743.956 1184.87 744.131L1186.17 745.426C1186.87 745.076 1187.66 744.875 1188.5 744.875C1189.33 744.875 1190.12 745.076 1190.81 745.426L1192.1 744.131C1192.28 743.956 1192.55 743.956 1192.73 744.131C1192.9 744.306 1192.9 744.577 1192.73 744.752ZM1179.75 752.312C1179.75 751.586 1180.34 751 1181.06 751C1181.79 751 1182.38 751.586 1182.38 752.312V758.438C1182.38 759.164 1181.79 759.75 1181.06 759.75C1180.34 759.75 1179.75 759.164 1179.75 758.438V752.312ZM1184.12 760.625C1183.64 760.625 1183.25 760.231 1183.25 759.75V751H1193.75V759.75C1193.75 760.231 1193.36 760.625 1192.88 760.625H1192V763.688C1192 764.414 1191.41 765 1190.69 765C1189.96 765 1189.38 764.414 1189.38 763.688V760.625H1187.62V763.688C1187.62 764.414 1187.04 765 1186.31 765C1185.59 765 1185 764.414 1185 763.688V760.625H1184.12ZM1195.94 751C1195.21 751 1194.62 751.586 1194.62 752.312V758.438C1194.62 759.164 1195.21 759.75 1195.94 759.75C1196.66 759.75 1197.25 759.164 1197.25 758.438V752.312C1197.25 751.586 1196.66 751 1195.94 751ZM1186.75 748.375H1185.88V747.5H1186.75V748.375ZM1190.25 748.375H1191.12V747.5H1190.25V748.375Z" fill="#6812D8"></path><circle cx="210.5" cy="392.5" r="17.5" fill="#6812D8"></circle><circle cx="128.5" cy="432.5" r="17.5" fill="#6812D8"></circle><circle cx="228.5" cy="302.5" r="17.5" fill="#6812D8"></circle><circle cx="152.5" cy="214.5" r="17.5" fill="#6812D8"></circle><circle cx="93.5" cy="302.5" r="17.5" fill="#6812D8"></circle><circle cx="374.5" cy="311.5" r="17.5" fill="#6812D8"></circle><circle cx="227.5" cy="538.5" r="17.5" fill="#6812D8"></circle><circle cx="268.5" cy="601.5" r="17.5" fill="#6812D8"></circle><circle cx="86.5" cy="675.5" r="17.5" fill="#6812D8"></circle><circle cx="587.5" cy="706.5" r="17.5" fill="#6812D8"></circle><circle cx="789.5" cy="884.5" r="17.5" fill="#6812D8"></circle><circle cx="901.5" cy="957.5" r="17.5" fill="#6812D8"></circle><circle cx="1028.5" cy="878.5" r="17.5" fill="#6812D8"></circle><circle cx="1263.5" cy="933.5" r="17.5" fill="#6812D8"></circle><circle cx="1214.5" cy="871.5" r="17.5" fill="#6812D8"></circle><circle cx="1263.5" cy="461.5" r="17.5" fill="#6812D8"></circle><circle cx="1317.5" cy="327.5" r="17.5" fill="#6812D8"></circle><circle cx="298.5" cy="224.5" r="17.5" fill="#ACF43B"></circle><circle cx="382.5" cy="166.5" r="17.5" fill="#ACF43B"></circle><circle cx="329.5" cy="71.5" r="17.5" fill="#ACF43B"></circle><circle cx="512.5" cy="121.5" r="17.5" fill="#ACF43B"></circle><circle cx="451.5" cy="224.5" r="17.5" fill="#ACF43B"></circle><circle cx="227.5" cy="148.5" r="17.5" fill="#ACF43B"></circle><circle cx="1162.5" cy="156.5" r="17.5" fill="#ACF43B"></circle><circle cx="1121.5" cy="121.5" r="17.5" fill="#ACF43B"></circle><circle cx="1197.5" cy="90.5" r="17.5" fill="#ACF43B"></circle><circle cx="1324.5" cy="242.5" r="17.5" fill="#ACF43B"></circle><circle cx="1082" cy="783" r="10" fill="#FF3B57"></circle><circle cx="1114" cy="867" r="10" fill="#FF3B57"></circle><circle cx="1236" cy="961" r="10" fill="#FF3B57"></circle><circle cx="1316" cy="971" r="10" fill="#FF3B57"></circle><circle cx="1212" cy="511" r="10" fill="#FF3B57"></circle><circle cx="1253" cy="385" r="10" fill="#FF3B57"></circle><circle cx="1336" cy="403" r="10" fill="#FF3B57"></circle><circle cx="1218" cy="295" r="10" fill="#FF3B57"></circle><circle cx="911" cy="104" r="10" fill="#FF3B57"></circle><circle cx="891" cy="529" r="10" fill="#FF3B57"></circle><circle cx="952" cy="629" r="10" fill="#FF3B57"></circle><circle cx="1102" cy="491" r="10" fill="#FF3B57"></circle><circle cx="733" cy="330" r="10" fill="#FF3B57"></circle><circle cx="405" cy="475" r="10" fill="#FF3B57"></circle><circle cx="332" cy="381" r="10" fill="#FF3B57"></circle><circle cx="193" cy="462" r="10" fill="#FF3B57"></circle><circle cx="101" cy="533" r="10" fill="#FF3B57"></circle><circle cx="152" cy="584" r="10" fill="#FF3B57"></circle><circle cx="91" cy="596" r="10" fill="#FF3B57"></circle><circle cx="42" cy="513" r="10" fill="#FF3B57"></circle><circle cx="136" cy="899" r="10" fill="#FF3B57"></circle><circle cx="251" cy="919" r="10" fill="#FF3B57"></circle><circle cx="227" cy="819" r="10" fill="#FF3B57"></circle><circle cx="156" cy="869" r="10" fill="#FF3B57"></circle><circle cx="255" cy="877" r="10" fill="#FF3B57"></circle><circle cx="329.5" cy="938.5" r="12.5" fill="#FC8107"></circle><circle cx="432.5" cy="899.5" r="12.5" fill="#FC8107"></circle><circle cx="482.5" cy="933.5" r="12.5" fill="#FC8107"></circle><circle cx="524.5" cy="856.5" r="12.5" fill="#FC8107"></circle><circle cx="906.5" cy="899.5" r="12.5" fill="#FC8107"></circle><circle cx="996.5" cy="946.5" r="12.5" fill="#FC8107"></circle><circle cx="1145.5" cy="555.5" r="12.5" fill="#FC8107"></circle><circle cx="1255.5" cy="555.5" r="12.5" fill="#FC8107"></circle><circle cx="1293.5" cy="513.5" r="12.5" fill="#FC8107"></circle><circle cx="1313.5" cy="585.5" r="12.5" fill="#FC8107"></circle><circle cx="1094.5" cy="337.5" r="12.5" fill="#FC8107"></circle><circle cx="1306.5" cy="144.5" r="12.5" fill="#FC8107"></circle></g><defs><linearGradient id="paint0_linear" x1="1072.19" y1="1029.47" x2="43.1918" y2="607.215" gradientUnits="userSpaceOnUse"><stop stop-color="white"></stop><stop offset="1" stop-color="#532BC9"></stop></linearGradient><clipPath id="clip0"><rect width="1356" height="1000" fill="white"></rect></clipPath></defs></svg> 